<svg width="417" height="187" viewBox="0 0 417 187" fill="none" xmlns="http://www.w3.org/2000/svg">
<path fill-rule="evenodd" clip-rule="evenodd" d="M23.5722 13.4301C17.9709 13.4301 13.4301 17.9709 13.4301 23.5722V123.731L21.9143 120.812V119.658C21.9143 113.471 21.766 107.717 21.6235 102.185C21.554 99.4911 21.486 96.8496 21.4371 94.2368C21.2905 86.4027 21.3208 78.933 22.1224 71.9764C23.7667 57.7069 28.7125 45.322 41.7762 35.1341C45.9131 31.908 51.815 29.756 57.9047 28.8267C64.096 27.8819 71.1638 28.0921 77.8611 30.2533C84.6337 32.4388 91.104 36.6595 95.6062 43.6742C100.091 50.6622 102.235 59.8157 101.492 71.2093C100.203 90.9773 87.8793 102.492 73.7328 109.97C71.734 111.027 69.6813 112.014 67.5977 112.943H99.4294C105.031 112.943 109.571 108.402 109.571 102.801V23.5722C109.571 17.9709 105.031 13.4301 99.4294 13.4301H23.5722ZM35.2467 110.271C36.7702 109.769 38.3079 109.27 39.8422 108.771C42.4044 107.939 44.9573 107.11 47.4196 106.278C54.5749 103.861 61.4238 101.286 67.456 98.0974C79.3894 91.7886 87.223 83.6364 88.0906 70.3351C88.695 61.0692 86.8822 54.946 84.3037 50.9284C81.7423 46.9375 78.0425 44.4239 73.7367 43.0345C69.3556 41.6207 64.4365 41.4155 59.9307 42.1031C55.3233 42.8062 51.8178 44.3344 50.0353 45.7246C40.5012 53.1597 36.8088 61.8463 35.4643 73.5138C34.7715 79.5258 34.7199 86.2411 34.8649 93.9855C34.9104 96.4169 34.9758 98.9636 35.0438 101.609C35.1154 104.394 35.1898 107.288 35.2467 110.271ZM47.0288 126.373H99.4294C112.448 126.373 123.002 115.819 123.002 102.801V23.5722C123.002 10.5536 112.448 0 99.4294 0H23.5722C10.5536 0 0 10.5536 0 23.5722V142.556L47.0288 126.373Z" fill="#0E79FF"/>
<path fill-rule="evenodd" clip-rule="evenodd" d="M142.382 60.1545C142.382 63.3727 144.19 65.2531 147.263 65.2531C150.337 65.2531 152.109 63.3727 152.109 60.1545V29.3463H152.398L165.307 60.95C166.211 63.192 167.73 64.2406 170.044 64.2406C172.322 64.2406 173.769 63.2281 174.709 60.9139L187.618 29.3463H187.907V60.1545C187.907 63.3727 189.679 65.2531 192.753 65.2531C195.826 65.2531 197.634 63.3727 197.634 60.1545V18.7152C197.634 14.2676 195.031 11.6641 190.619 11.6641C186.786 11.6641 184.653 13.2913 183.062 17.305L170.153 49.3789H169.863L156.918 17.305C155.327 13.2551 153.23 11.6641 149.433 11.6641C144.985 11.6641 142.382 14.3037 142.382 18.7152V60.1545ZM273.057 64.566C269.622 64.566 267.597 62.4688 267.597 58.8528V17.3773C267.597 13.7613 269.622 11.6641 273.057 11.6641C276.492 11.6641 278.517 13.7613 278.517 17.3773V55.526H297.031C299.996 55.526 301.985 57.2256 301.985 60.046C301.985 62.8665 300.032 64.566 297.031 64.566H273.057ZM301.682 53.4286C301.682 60.4074 307.286 65.1805 314.663 65.1805C319.508 65.1805 324.354 62.7578 326.524 58.6356H326.74V60.6244C326.957 63.7341 328.946 65.3252 331.803 65.3252C334.804 65.3252 336.938 63.5172 336.938 60.0097V37.916C336.938 30.1054 330.465 24.9707 320.521 24.9707C312.493 24.9707 306.274 27.8273 304.466 32.4558C304.104 33.2513 303.924 34.0107 303.924 34.8424C303.924 37.2289 305.768 38.8923 308.335 38.8923C310.035 38.8923 311.372 38.2414 312.53 36.9396C314.88 33.9022 316.833 32.8536 320.051 32.8536C324.028 32.8536 326.56 34.9508 326.56 38.5668V41.1342L316.796 41.7127C307.106 42.2913 301.682 46.3774 301.682 53.4286ZM326.56 50.355C326.56 54.5495 322.763 57.5508 318.134 57.5508C314.591 57.5508 312.204 55.7428 312.204 52.85C312.204 50.1018 314.446 48.33 318.388 48.0407L326.56 47.5345V50.355ZM388.592 78.015C390.868 78.7206 393.478 79.1251 396.355 79.1382C408.83 79.2106 416.134 73.1357 416.134 63.0471V30.3585C416.134 26.7787 413.929 25.0068 410.891 25.0068C407.854 25.0068 405.576 26.7787 405.576 30.3585V32.4919H405.359C403.334 28.1166 399.103 25.1876 393.534 25.1876C383.554 25.1876 377.624 32.3835 377.624 44.5332C377.624 56.3575 383.699 63.7341 393.354 63.7341C398.958 63.7341 403.478 60.9498 405.286 56.7914H405.503V62.9748C405.503 67.8202 402.104 71.0023 396.319 70.9661C393.076 70.9327 390.482 69.6627 387.851 67.3278C387.011 65.8645 385.485 65.0498 383.421 65.0498C380.167 65.0498 378.214 67.0748 378.214 70.4738V125.287C378.214 128.903 380.42 130.783 383.493 130.783C386.603 130.783 388.773 128.903 388.773 125.287V107.894C388.773 102.796 391.702 99.2882 396.692 99.2882C401.501 99.2882 403.96 102.326 403.96 107.316V125.287C403.96 128.903 406.165 130.783 409.239 130.783C412.349 130.783 414.518 128.903 414.518 125.287V105.074C414.518 96.1061 409.601 90.5375 400.995 90.5375C395.101 90.5375 390.87 93.2856 388.809 98.1672H388.592V78.015ZM405.612 44.6778C405.612 51.6929 402.213 55.8874 396.933 55.8874C391.69 55.8874 388.436 51.729 388.436 44.6417C388.436 37.6266 391.726 33.2151 396.933 33.2151C402.213 33.2151 405.612 37.699 405.612 44.6778ZM339.897 110.642C339.897 123.19 347.31 130.856 358.99 130.856C366.403 130.856 373.02 127.167 375.334 121.888C375.804 120.839 376.021 119.971 376.021 119.14C376.021 116.536 374.032 114.909 371.574 114.909C369.332 114.909 368.175 115.813 366.764 118.019C365.137 120.767 362.859 122.575 359.171 122.575C353.891 122.575 350.601 118.236 350.601 110.606C350.601 103.121 353.891 98.7093 359.243 98.7093C362.606 98.7093 364.956 100.264 366.873 103.663C367.958 105.58 369.223 106.411 371.32 106.411C373.815 106.411 375.84 104.893 375.84 102.289C375.84 101.53 375.623 100.59 375.262 99.6857C373.165 94.1893 366.692 90.4287 358.918 90.4287C347.274 90.4287 339.897 98.2393 339.897 110.642ZM315.902 130.639C308.526 130.639 302.921 125.865 302.921 118.887C302.921 111.835 308.345 107.749 318.036 107.171L327.799 106.592V104.025C327.799 100.409 325.268 98.3116 321.29 98.3116C318.072 98.3116 316.119 99.3602 313.769 102.398C312.612 103.699 311.274 104.35 309.574 104.35C307.007 104.35 305.163 102.687 305.163 100.3C305.163 99.4687 305.344 98.7093 305.705 97.9138C307.513 93.2853 313.733 90.4287 321.76 90.4287C331.704 90.4287 338.177 95.5634 338.177 103.374V125.468C338.177 128.975 336.043 130.783 333.042 130.783C330.185 130.783 328.197 129.192 327.98 126.082V124.094H327.763C325.593 128.216 320.748 130.639 315.902 130.639ZM319.374 123.009C324.002 123.009 327.799 120.008 327.799 115.813V112.993L319.627 113.499C315.685 113.788 313.443 115.56 313.443 118.308C313.443 121.201 315.83 123.009 319.374 123.009ZM264.28 110.606C264.28 123.334 271.765 130.856 283.481 130.856C295.197 130.856 302.682 123.37 302.682 110.606C302.682 98.0223 295.089 90.4287 283.481 90.4287C271.874 90.4287 264.28 98.0585 264.28 110.606ZM291.943 110.642C291.943 118.416 288.652 122.792 283.481 122.792C278.274 122.792 274.984 118.416 274.984 110.642C274.984 102.94 278.346 98.4924 283.481 98.4924C288.616 98.4924 291.943 102.94 291.943 110.642ZM240.754 130.892C225.278 130.892 215.876 120.767 215.876 103.917C215.876 87.1023 225.458 76.9414 240.465 76.9414C250.228 76.9414 257.785 81.2806 261.365 88.8019C262.088 90.1759 262.45 91.5862 262.45 92.8879C262.45 95.7446 260.533 97.5887 257.641 97.5887C255.182 97.5887 253.627 96.5039 252.434 93.9727C250.047 88.6572 245.78 85.9814 240.573 85.9814C232.329 85.9814 227.013 92.8879 227.013 103.881C227.013 115.018 232.256 121.888 240.609 121.888C246.106 121.888 250.228 119.393 252.578 114.15C253.699 111.691 255.073 110.715 257.388 110.715C260.461 110.715 262.486 112.667 262.486 115.56C262.486 116.79 262.197 117.947 261.654 119.212C258.4 126.444 250.626 130.892 240.754 130.892ZM345.348 65.3251C342.274 65.3251 340.068 63.4448 340.068 59.8288V30.3223C340.068 27.0318 341.985 25.0068 345.167 25.0068C348.349 25.0068 350.446 27.0318 350.446 30.3585V32.5281H350.663C352.724 27.7188 356.63 25.0792 362.596 25.0792C371.202 25.0792 376.047 30.5031 376.047 39.5793V59.8288C376.047 63.4448 373.842 65.3251 370.768 65.3251C367.658 65.3251 365.489 63.4448 365.489 59.8288V41.785C365.489 36.7227 363.102 33.8299 358.365 33.8299C353.628 33.8299 350.627 37.3012 350.627 42.3274V59.8288C350.627 63.4448 348.457 65.3251 345.348 65.3251ZM238.032 43.3404C238.032 46.2693 240.166 47.9688 243.022 47.9688H258.101C260.958 47.9688 263.091 46.2693 263.091 43.3404C263.091 40.4114 260.958 38.748 258.101 38.748H243.022C240.166 38.748 238.032 40.4114 238.032 43.3404ZM208.288 78.9213C203.659 78.9213 201.164 77.1494 201.164 73.9674C201.164 71.8339 202.647 70.496 205.033 70.496C205.395 70.496 205.675 70.5051 205.955 70.5141C206.236 70.5231 206.516 70.5322 206.878 70.5322C208.722 70.5322 210.711 69.7367 211.976 67.0247L212.519 65.6506L200.152 33.0343C199.754 31.9495 199.537 30.7924 199.537 29.9246C199.537 27.068 201.888 25.0068 204.997 25.0068C207.782 25.0068 209.228 26.2001 210.096 29.2737L218.521 56.1044H218.702L227.127 29.2014C227.995 26.2724 229.514 25.0068 232.226 25.0068C235.263 25.0068 237.36 26.9956 237.36 29.7799C237.36 30.6478 237.143 31.8772 236.782 32.8897L224.885 65.2167C221.269 75.233 216.785 78.9213 208.288 78.9213Z" fill="#0E79FF"/>
<rect x="315" y="150.557" width="102" height="36.4286" rx="18.2143" fill="black"/>
<path d="M337.001 177.414V159.963H343.682C344.943 159.963 345.991 160.162 346.826 160.56C347.667 160.952 348.294 161.489 348.709 162.17C349.13 162.852 349.34 163.624 349.34 164.488C349.34 165.198 349.203 165.806 348.931 166.311C348.658 166.811 348.292 167.217 347.831 167.53C347.371 167.842 346.857 168.067 346.289 168.203V168.373C346.908 168.407 347.502 168.598 348.07 168.944C348.644 169.285 349.112 169.768 349.476 170.393C349.84 171.018 350.021 171.773 350.021 172.659C350.021 173.563 349.803 174.375 349.365 175.096C348.928 175.812 348.269 176.377 347.388 176.792C346.508 177.207 345.4 177.414 344.065 177.414H337.001ZM340.163 174.773H343.563C344.71 174.773 345.537 174.554 346.042 174.116C346.553 173.673 346.809 173.105 346.809 172.412C346.809 171.895 346.681 171.43 346.426 171.015C346.17 170.595 345.806 170.265 345.335 170.026C344.863 169.782 344.301 169.66 343.648 169.66H340.163V174.773ZM340.163 167.385H343.29C343.835 167.385 344.327 167.286 344.764 167.087C345.201 166.882 345.545 166.595 345.795 166.226C346.051 165.851 346.178 165.408 346.178 164.897C346.178 164.221 345.94 163.664 345.463 163.227C344.991 162.789 344.29 162.571 343.358 162.571H340.163V167.385ZM352.771 177.414V159.963H364.121V162.613H355.933V167.351H363.533V170.001H355.933V174.764H364.189V177.414H352.771ZM366.58 162.613V159.963H380.503V162.613H375.109V177.414H371.973V162.613H366.58ZM383.319 177.414H379.945L386.088 159.963H389.991L396.143 177.414H392.768L388.108 163.542H387.971L383.319 177.414ZM383.43 170.572H392.632V173.111H383.43V170.572Z" fill="white"/>
</svg>
